<mxfile host="app.diagrams.net" agent="Mozilla/5.0 (Windows NT 10.0; Win64; x64) AppleWebKit/537.36 (KHTML, like Gecko) Chrome/127.0.0.0 Safari/537.36" version="24.7.7">
  <diagram id="C5RBs43oDa-KdzZeNtuy" name="Page-1">
    <mxGraphModel dx="880" dy="468" grid="1" gridSize="10" guides="1" tooltips="1" connect="1" arrows="1" fold="1" page="1" pageScale="1" pageWidth="827" pageHeight="1169" math="0" shadow="0">
      <root>
        <mxCell id="WIyWlLk6GJQsqaUBKTNV-0" />
        <mxCell id="WIyWlLk6GJQsqaUBKTNV-1" parent="WIyWlLk6GJQsqaUBKTNV-0" />
        <mxCell id="xAx2lMTkhK6uZtV2jDfB-6" style="edgeStyle=orthogonalEdgeStyle;rounded=0;orthogonalLoop=1;jettySize=auto;html=1;" edge="1" parent="WIyWlLk6GJQsqaUBKTNV-1" source="xAx2lMTkhK6uZtV2jDfB-1" target="xAx2lMTkhK6uZtV2jDfB-2">
          <mxGeometry relative="1" as="geometry" />
        </mxCell>
        <mxCell id="xAx2lMTkhK6uZtV2jDfB-1" value="" style="strokeWidth=2;html=1;shape=mxgraph.flowchart.start_2;whiteSpace=wrap;" vertex="1" parent="WIyWlLk6GJQsqaUBKTNV-1">
          <mxGeometry x="340" y="20" width="60" height="60" as="geometry" />
        </mxCell>
        <mxCell id="xAx2lMTkhK6uZtV2jDfB-2" value="Ingreso vh,ch,emp" style="shape=parallelogram;html=1;strokeWidth=2;perimeter=parallelogramPerimeter;whiteSpace=wrap;rounded=1;arcSize=12;size=0.23;" vertex="1" parent="WIyWlLk6GJQsqaUBKTNV-1">
          <mxGeometry x="290" y="120" width="160" height="60" as="geometry" />
        </mxCell>
        <mxCell id="xAx2lMTkhK6uZtV2jDfB-3" value="saldo=ch*vh" style="shape=parallelogram;html=1;strokeWidth=2;perimeter=parallelogramPerimeter;whiteSpace=wrap;rounded=1;arcSize=12;size=0.23;" vertex="1" parent="WIyWlLk6GJQsqaUBKTNV-1">
          <mxGeometry x="275" y="210" width="170" height="60" as="geometry" />
        </mxCell>
        <mxCell id="xAx2lMTkhK6uZtV2jDfB-12" style="edgeStyle=orthogonalEdgeStyle;rounded=0;orthogonalLoop=1;jettySize=auto;html=1;" edge="1" parent="WIyWlLk6GJQsqaUBKTNV-1" source="xAx2lMTkhK6uZtV2jDfB-5" target="xAx2lMTkhK6uZtV2jDfB-11">
          <mxGeometry relative="1" as="geometry" />
        </mxCell>
        <mxCell id="xAx2lMTkhK6uZtV2jDfB-5" value="&quot;El empleado numero &amp;amp;emp obtuvo una ganancia %saldo pesos&quot;" style="strokeWidth=2;html=1;shape=mxgraph.flowchart.document2;whiteSpace=wrap;size=0.25;" vertex="1" parent="WIyWlLk6GJQsqaUBKTNV-1">
          <mxGeometry x="275" y="300" width="180" height="90" as="geometry" />
        </mxCell>
        <mxCell id="xAx2lMTkhK6uZtV2jDfB-7" style="edgeStyle=orthogonalEdgeStyle;rounded=0;orthogonalLoop=1;jettySize=auto;html=1;entryX=0.553;entryY=0.017;entryDx=0;entryDy=0;entryPerimeter=0;" edge="1" parent="WIyWlLk6GJQsqaUBKTNV-1" source="xAx2lMTkhK6uZtV2jDfB-2" target="xAx2lMTkhK6uZtV2jDfB-3">
          <mxGeometry relative="1" as="geometry" />
        </mxCell>
        <mxCell id="xAx2lMTkhK6uZtV2jDfB-10" style="edgeStyle=orthogonalEdgeStyle;rounded=0;orthogonalLoop=1;jettySize=auto;html=1;entryX=0.5;entryY=0;entryDx=0;entryDy=0;entryPerimeter=0;" edge="1" parent="WIyWlLk6GJQsqaUBKTNV-1" source="xAx2lMTkhK6uZtV2jDfB-3" target="xAx2lMTkhK6uZtV2jDfB-5">
          <mxGeometry relative="1" as="geometry" />
        </mxCell>
        <mxCell id="xAx2lMTkhK6uZtV2jDfB-11" value="" style="strokeWidth=2;html=1;shape=mxgraph.flowchart.start_2;whiteSpace=wrap;" vertex="1" parent="WIyWlLk6GJQsqaUBKTNV-1">
          <mxGeometry x="335" y="430" width="60" height="60" as="geometry" />
        </mxCell>
      </root>
    </mxGraphModel>
  </diagram>
</mxfile>
